<svg xmlns="http://www.w3.org/2000/svg" viewBox="0 0 1080 622" fill="none">
  <!--
    Logo vettoriale — Vetreria Monferrina di Fioravanti G.
    Generato da logo originale via potrace.
    Rosso monogramma: #D4001A | Testo scuro: #333333
  -->
  <g id="dark-layer" fill="#333333">
    <path d="M 0.494 311 C 0.494 482.325, 0.609 552.413, 0.750 466.750 C 0.891 381.088, 0.891 240.913, 0.750 155.250 C 0.609 69.588, 0.494 139.675, 0.494 311 M 908.250 186.748 C 903.205 187.029, 901.985 187.424, 901.923 188.798 C 901.264 203.410, 901.921 216.547, 903.354 217.452 C 905.780 218.981, 907.039 217.020, 907.692 210.698 C 908.579 202.106, 911.790 202.121, 918.632 210.749 C 920.704 213.362, 922.764 215.932, 923.209 216.459 C 924.503 217.993, 935.709 218.056, 936.970 216.536 C 937.670 215.693, 937.958 210.283, 937.779 201.363 L 937.500 187.500 934.500 187.500 L 931.500 187.500 931.217 199.983 C 931.062 206.848, 930.560 212.840, 930.102 213.298 C 929.203 214.197, 922 206.381, 922 204.508 C 922 203.885, 923.350 202.378, 925 201.158 C 930.738 196.916, 927.326 187, 920.130 187 C 918.498 187, 916.564 186.865, 915.832 186.701 C 915.099 186.536, 911.688 186.558, 908.250 186.748 M 947.750 186.745 C 945.306 187.306, 945.077 214.989, 947.500 217 C 950.515 219.502, 952 216.493, 952 207.878 C 952 203.545, 952.372 200, 952.826 200 C 953.989 200, 956.976 203.545, 961.533 210.335 C 966.217 217.313, 967.289 217.978, 973.058 217.482 C 975.501 217.272, 977.793 217.078, 978.151 217.050 C 978.509 217.023, 979.732 215.425, 980.867 213.500 C 982.864 210.116, 983.132 210, 988.954 210 C 994.870 210, 995.018 210.068, 997.447 213.917 C 999.386 216.987, 1000.377 217.714, 1002.034 217.281 C 1004.620 216.605, 1004.244 214.422, 999.946 205.138 C 998.326 201.638, 997 198.380, 997 197.897 C 997 195.495, 992.410 186.947, 990.854 186.454 C 986.758 185.154, 984.278 188.086, 980.243 199 C 975.645 211.441, 975.203 212.432, 974.105 212.798 C 973.351 213.050, 972.996 210.198, 972.989 203.833 C 972.973 190.242, 972.283 187, 969.407 187 C 967.155 187, 967.065 187.314, 966.788 196.169 C 966.616 201.650, 966.062 205.483, 965.411 205.699 C 964.811 205.897, 962.596 203.234, 960.487 199.780 C 953.874 188.948, 950.994 186.001, 947.750 186.745 M 667.219 187.672 C 665.586 188.329, 661.207 196.940, 659.382 203.084 C 658.610 205.686, 657.310 209.094, 656.495 210.657 C 655.680 212.221, 655.010 214.544, 655.006 215.820 C 654.997 219.124, 659.062 218.377, 660.792 214.756 C 662.295 211.611, 664.814 210.736, 671.080 211.184 C 674.979 211.463, 675.669 211.883, 676.930 214.750 C 678.057 217.310, 678.960 218, 681.180 218 C 682.770 218, 684 217.455, 683.999 216.750 C 683.999 215.217, 680.124 204.881, 679.032 203.500 C 678.597 202.950, 677.219 199.665, 675.969 196.200 C 674.719 192.735, 672.764 189.248, 671.625 188.450 C 669.424 186.908, 669.214 186.871, 667.219 187.672 M 707.093 188.387 C 706.315 189.325, 706.033 194.268, 706.221 203.637 C 706.485 216.740, 706.610 217.500, 708.500 217.500 C 710.322 217.500, 710.524 216.744, 710.769 209 C 710.916 204.325, 711.259 199.887, 711.530 199.137 C 712.471 196.538, 714.641 199.811, 715.906 205.738 C 718.366 217.264, 718.836 218.147, 722.318 217.806 C 725.155 217.528, 725.566 217.036, 726.749 212.500 C 730.789 197.016, 732.595 195.734, 733.150 207.955 C 733.348 212.331, 734.032 216.432, 734.668 217.068 C 737.322 219.722, 738 216.747, 738 202.460 L 738 188.038 735.500 187.411 C 730.261 186.096, 728.636 187.428, 726.599 194.706 C 723.031 207.456, 721.862 207.813, 718.493 197.186 C 717.230 193.201, 715.647 189.279, 714.976 188.471 C 713.432 186.611, 708.610 186.560, 707.093 188.387 M 754.711 190.928 L 750.500 194.856 750.500 202.412 C 750.500 209.797, 750.584 210.050, 754.217 213.684 C 757.591 217.058, 758.514 217.434, 764.217 217.755 C 774.528 218.335, 780.989 212.539, 780.996 202.700 C 781.004 193.023, 774.763 187, 764.729 187 C 759.354 187, 758.610 187.292, 754.711 190.928 M 786.465 188.231 C 786.177 188.982, 786.067 195.875, 786.220 203.548 C 786.485 216.740, 786.609 217.500, 788.500 217.500 C 790.315 217.500, 790.546 216.667, 791 208.500 C 791.406 201.188, 791.781 199.561, 793 199.825 C 793.825 200.004, 794.640 200.537, 794.812 201.011 C 795.534 203.004, 805.634 216.384, 807.114 217.310 C 808.002 217.864, 809.476 218.031, 810.391 217.680 C 811.855 217.118, 812.021 215.280, 811.777 202.271 C 811.514 188.259, 811.397 187.500, 809.500 187.500 C 807.704 187.500, 807.449 188.333, 807 195.671 C 806.490 204.006, 805.936 205.697, 804.091 204.556 C 803.052 203.914, 796.917 195.228, 793.926 190.165 C 792.180 187.209, 787.338 185.954, 786.465 188.231 M 817.607 188.582 C 816.677 191.006, 816.916 215.319, 817.885 216.848 C 818.355 217.590, 819.586 218.036, 820.620 217.839 C 822.122 217.552, 822.602 216.333, 823.009 211.782 C 823.638 204.724, 824.174 204.189, 830.991 203.807 C 835.277 203.567, 836.554 203.116, 836.814 201.750 C 837.101 200.240, 836.319 200, 831.109 200 C 824.562 200, 822.193 198.117, 823.512 193.962 C 824.043 192.289, 825.053 192, 830.376 192 C 837.294 192, 841.818 189.920, 839 188.034 C 836.356 186.265, 818.319 186.727, 817.607 188.582 M 843.439 188.298 C 843.165 189.012, 843.067 195.875, 843.220 203.548 L 843.500 217.500 854.769 217.783 C 864.440 218.026, 866.126 217.834, 866.664 216.432 C 867.626 213.927, 865.187 213.032, 857.357 213.015 C 849.979 212.999, 848.976 212.417, 849.015 208.168 C 849.048 204.571, 850.841 203.506, 857.712 203 C 862.857 202.621, 864.500 202.137, 864.500 201 C 864.500 199.834, 862.910 199.435, 857.356 199.208 C 851.119 198.954, 850.143 198.656, 849.674 196.862 C 848.597 192.743, 849.790 192, 857.485 192 C 864.748 192, 868.073 190.545, 866.527 188.044 C 865.528 186.428, 844.066 186.664, 843.439 188.298 M 870.650 187.757 C 870.393 188.173, 870.049 194.774, 869.885 202.426 C 869.634 214.198, 869.830 216.490, 871.158 217.328 C 874.257 219.283, 876 217.402, 876 212.103 C 876 207.735, 877.677 204, 879.637 204 C 881.291 204, 884.151 206.578, 888.468 211.960 C 892.026 216.396, 893.949 218.008, 895.432 217.794 C 898.758 217.316, 898.306 214.818, 893.939 209.541 L 889.835 204.583 893.153 201.875 C 895.974 199.572, 896.455 198.559, 896.364 195.098 C 896.189 188.438, 893.643 187.074, 881.309 187.033 C 875.704 187.015, 870.908 187.341, 870.650 187.757 M 464 190.300 C 464 191.565, 464.381 193.028, 464.846 193.550 C 465.311 194.072, 467.184 198.775, 469.007 204 C 473.818 217.786, 474.538 219, 477.903 219 C 479.472 219, 481.180 218.438, 481.699 217.750 C 483.048 215.964, 489 201.296, 489 199.758 C 489 199.050, 489.928 196.738, 491.063 194.621 C 493.382 190.294, 493.033 188, 490.054 188 C 487.800 188, 485.585 191.011, 484.538 195.500 C 483.336 200.651, 479.810 208, 478.539 208 C 477.129 208, 472.552 199.010, 471.533 194.240 C 470.290 188.423, 464 185.133, 464 190.300 M 501.614 189.563 C 500.437 192.631, 500.933 216.533, 502.200 217.800 C 502.986 218.586, 507.149 219, 514.270 219 C 524.970 219, 525.134 218.965, 524.820 216.750 C 524.523 214.665, 523.876 214.463, 516 214 L 507.500 213.500 507.177 210.123 C 506.749 205.649, 507.692 204.919, 514.635 204.345 C 522.623 203.684, 523.527 203.340, 522.026 201.532 C 521.255 200.603, 518.450 199.983, 514.164 199.794 L 507.500 199.500 507.500 196.500 L 507.500 193.500 519.763 193.219 L 532.026 192.938 532.981 195.449 C 533.506 196.830, 533.924 202.308, 533.909 207.621 C 533.893 213.352, 534.330 217.730, 534.983 218.383 C 537.105 220.505, 537.969 216.622, 537.985 204.892 L 538 193.284 542.250 192.388 C 544.956 191.817, 546.500 190.948, 546.500 189.996 C 546.500 187.651, 502.510 187.227, 501.614 189.563 M 554.438 189.300 C 554.164 190.016, 554.065 196.605, 554.220 203.943 C 554.458 215.289, 554.758 217.448, 556.222 218.370 C 558.806 219.998, 560.361 217.823, 560.975 211.725 C 561.461 206.885, 561.708 206.476, 564.321 206.177 C 567.264 205.839, 569.461 207.733, 574.271 214.752 C 576.591 218.135, 579.232 219.592, 581.032 218.480 C 582.511 217.566, 581.211 214.100, 577.859 210.022 C 574.359 205.764, 574.303 204.711, 577.485 203.008 C 582.103 200.537, 581.386 190.513, 576.455 188.621 C 573.183 187.365, 554.965 187.927, 554.438 189.300 M 586.625 191.125 C 585.338 197.559, 585.912 216.682, 587.430 217.942 C 588.855 219.125, 616.123 219.160, 618.029 217.982 C 618.497 217.693, 619.019 215.038, 619.190 212.081 C 619.652 204.070, 621.696 203.304, 627.477 208.978 C 629.965 211.419, 632 213.943, 632 214.586 C 632 216.944, 635.166 218.264, 641.104 218.382 C 644.450 218.448, 647.554 218.276, 648.003 217.998 C 648.952 217.412, 649.222 212.510, 649.093 198.184 L 649 187.867 646.250 188.184 L 643.500 188.500 643 201.919 C 642.714 209.602, 642.073 215.445, 641.500 215.589 C 640.950 215.727, 638.601 213.422, 636.280 210.467 L 632.060 205.094 635.027 202.980 C 638.841 200.265, 639.722 196.737, 637.664 192.421 C 635.688 188.279, 634.040 187.835, 622 188.207 L 612.500 188.500 612.350 200 C 612.267 206.325, 612.155 212.079, 612.100 212.788 C 612.025 213.759, 609.757 214.005, 602.856 213.788 C 592.505 213.462, 590.782 212.377, 592.558 207.303 C 593.490 204.639, 593.911 204.475, 601.019 204 C 605.134 203.725, 608.388 203.162, 608.250 202.750 C 608.112 202.338, 608 201.550, 608 201 C 608 200.431, 605.067 200, 601.200 200 C 594.193 200, 592 199.007, 592 195.835 C 592 193.122, 595.199 192, 602.934 192 C 609.333 192, 610 191.811, 610 190 C 610 188.117, 609.333 188, 598.625 188 L 587.250 188 586.625 191.125 M 878.751 191.647 C 876.495 192.291, 875.408 196.582, 877.011 198.513 C 879.692 201.744, 891 199.362, 891 195.566 C 891 192.711, 883.464 190.300, 878.751 191.647 M 909.176 191.870 C 908.379 192.375, 907.981 194.063, 908.176 196.105 C 908.489 199.387, 908.657 199.510, 913.197 199.803 C 918.081 200.117, 922.626 197.394, 921.734 194.688 C 920.774 191.777, 912.316 189.879, 909.176 191.870 M 562.856 192.632 C 560.907 193.194, 559.944 197.148, 561.207 199.405 C 562.425 201.582, 571.258 201.599, 573.429 199.429 C 575.068 197.789, 575.543 194.452, 574.250 193.656 C 572.992 192.882, 564.605 192.128, 562.856 192.632 M 620.200 193.200 C 616.948 196.452, 619.611 201, 624.766 201 C 631.082 201, 634.494 197.309, 631.369 193.855 C 629.428 191.710, 622.118 191.282, 620.200 193.200 M 758.763 194.344 C 750.081 202.390, 758.426 217.210, 769.309 213.073 C 774.816 210.979, 776.493 200.735, 772.362 194.430 C 770.112 190.996, 762.427 190.948, 758.763 194.344 M 433.664 193.706 C 432.288 194.061, 431.979 194.781, 432.431 196.580 C 433.171 199.528, 429.525 213.904, 427.531 215.898 C 425.111 218.317, 416.986 218.851, 381.405 218.927 C 339.747 219.016, 341.664 218.189, 345.930 234.239 C 346.992 238.232, 348.137 243.975, 348.475 247 C 348.813 250.025, 349.712 255.200, 350.474 258.500 C 351.236 261.800, 352.390 267.200, 353.038 270.500 C 354.570 278.289, 354.925 279.408, 355.639 278.694 C 356.267 278.066, 353.772 263.355, 351.412 253.765 C 350.635 250.611, 350 246.722, 350 245.122 C 350 243.523, 349.297 238.814, 348.437 234.658 C 345.807 221.940, 341.953 223.003, 390.785 222.985 C 413.728 222.976, 432.993 222.639, 433.596 222.235 C 434.987 221.302, 435.531 218.998, 437.495 205.727 C 439.401 192.843, 439.219 192.272, 433.664 193.706 M 229 196.310 C 229 197.122, 229.708 198.058, 230.573 198.390 C 231.669 198.810, 232.048 198.489, 231.823 197.329 C 231.412 195.213, 229 194.341, 229 196.310 M 986.175 199.750 C 984.999 203.549, 986.299 206.030, 989.441 205.985 C 992.593 205.939, 993.381 204.216, 992.142 200.079 C 990.527 194.689, 987.788 194.538, 986.175 199.750 M 666.399 200.587 C 664.743 204.551, 665.736 207, 669 207 C 672.019 207, 673.051 204.769, 671.923 200.684 C 670.623 195.974, 668.343 195.935, 666.399 200.587 M 101.100 214.191 C 101.155 214.911, 101.560 216.625, 102 218 C 102.765 220.387, 102.805 220.356, 102.900 217.309 C 102.955 215.554, 102.550 213.840, 102 213.500 C 101.450 213.160, 101.045 213.471, 101.100 214.191 M 774.379 246.100 C 768.862 248.778, 766.566 253.750, 767.217 261.608 C 767.643 266.744, 768.108 267.711, 771.807 271.161 C 775.781 274.868, 778.176 275.625, 784.500 275.174 C 793.626 274.524, 797 271.956, 797 265.661 C 797 260.347, 795.688 258.996, 790.550 259.015 C 784.979 259.036, 782.818 260.518, 785.441 262.519 C 786.509 263.334, 787.971 264, 788.691 264 C 790.159 264, 790.413 266.801, 789.129 268.826 C 787.957 270.675, 780.752 271.473, 778.091 270.049 C 770.388 265.926, 770.313 253.475, 777.967 249.517 C 782.085 247.388, 784.393 247.618, 787.818 250.500 C 791.735 253.796, 795 253.837, 795 250.589 C 795 245.065, 782.236 242.286, 774.379 246.100 M 483.667 245.667 C 483.300 246.033, 483 247.743, 483 249.467 C 483 253.929, 481.515 254.967, 476.055 254.320 C 469.255 253.515, 465.864 256.589, 465.239 264.127 C 464.836 268.988, 465.092 269.956, 467.556 272.884 C 470.137 275.952, 470.638 276.136, 474.913 275.591 C 481.274 274.781, 482.124 274.778, 485.250 275.552 L 488 276.233 488 261.224 C 488 248.459, 487.763 246.123, 486.418 245.607 C 484.460 244.855, 484.478 244.855, 483.667 245.667 M 497.688 245.646 C 496.272 247.061, 497.073 249, 499.073 249 C 500.471 249, 501.041 248.457, 500.823 247.333 C 500.466 245.492, 498.759 244.574, 497.688 245.646 M 524.439 246.298 C 524.165 247.012, 524.067 253.875, 524.220 261.548 C 524.485 274.740, 524.609 275.500, 526.500 275.500 C 528.218 275.500, 528.544 274.730, 528.810 270.030 C 529.200 263.136, 530.175 262, 535.696 262 C 539.395 262, 540.091 261.704, 539.814 260.250 C 539.564 258.932, 538.314 258.425, 534.746 258.195 C 530.593 257.928, 529.930 257.571, 529.358 255.291 C 528.328 251.187, 530.075 249.558, 536.102 249 C 539.071 248.725, 541.388 248.162, 541.250 247.750 C 541.112 247.338, 541 246.550, 541 246 C 541 244.424, 525.048 244.712, 524.439 246.298 M 546.480 246.032 C 546.092 246.660, 546.245 247.645, 546.820 248.220 C 548.164 249.564, 551.297 248.392, 550.750 246.749 C 550.194 245.078, 547.364 244.602, 546.480 246.032 M 741.694 245.639 C 740.651 246.682, 741.972 248, 744.059 248 C 745.127 248, 746 247.325, 746 246.500 C 746 245.017, 742.930 244.403, 741.694 245.639 M 723.945 250.250 C 722.528 252.524, 722.103 254.401, 722.531 256.500 C 722.868 258.150, 723.352 261.750, 723.608 264.500 C 723.863 267.250, 724.294 270.528, 724.564 271.785 C 725.188 274.687, 729.368 276.409, 732.159 274.915 C 734.183 273.832, 734.183 273.823, 731.997 271.497 C 729.148 268.464, 728.961 259.805, 731.680 256.801 C 733.258 255.058, 733.293 254.680, 731.975 253.660 C 731.150 253.022, 729.928 251.262, 729.259 249.750 C 727.672 246.162, 726.419 246.280, 723.945 250.250 M 670.323 253.660 C 667.342 254.290, 665.366 256.766, 666.743 258.143 C 667.487 258.887, 668.832 258.829, 671.275 257.945 C 675.207 256.524, 678 257.177, 678 259.520 C 678 261.202, 672.413 264, 669.055 264 C 665.731 264, 663.402 268.514, 665.094 271.676 C 667.116 275.454, 670.205 276.555, 674.867 275.158 C 676.997 274.520, 680.206 274.291, 681.999 274.650 L 685.259 275.302 684.820 266.128 C 684.524 259.937, 683.913 256.498, 682.941 255.554 C 681.385 254.043, 673.856 252.913, 670.323 253.660 M 699.022 253.712 C 692.366 254.208, 692.031 254.677, 692.029 263.500 C 692.027 272.879, 692.710 275.184, 695.380 274.802 C 697.236 274.538, 697.532 273.753, 697.757 268.500 C 698.119 260.066, 698.623 258.493, 701.360 257.246 C 705.854 255.198, 707.997 257.955, 708.015 265.807 C 708.032 273.293, 708.860 275.365, 711.620 274.837 C 713.246 274.527, 713.539 273.384, 713.788 266.397 C 714.212 254.503, 712.152 252.733, 699.022 253.712 M 497.200 255.200 C 495.354 257.046, 495.592 273.416, 497.487 274.989 C 500.887 277.811, 502 275.527, 502 265.731 C 502 257.211, 501.179 254, 499 254 C 498.670 254, 497.860 254.540, 497.200 255.200 M 546.667 254.667 C 546.300 255.033, 546 259.710, 546 265.060 C 546 273.120, 546.279 274.893, 547.627 275.410 C 551.195 276.779, 552.222 274.108, 551.689 264.852 C 551.412 260.043, 550.892 255.634, 550.534 255.054 C 549.801 253.869, 547.677 253.656, 546.667 254.667 M 562.383 255.772 C 557.114 260.072, 557.413 270.022, 562.929 273.950 C 566.422 276.436, 573.571 276.689, 576.783 274.439 C 583.278 269.890, 583.439 258.446, 577.055 255.030 C 573.911 253.347, 564.789 253.808, 562.383 255.772 M 590.709 254.624 C 590.319 255.014, 590 259.772, 590 265.198 C 590 273.430, 590.272 275.167, 591.645 275.694 C 594.122 276.645, 596 273.280, 596 267.891 C 596 261.492, 596.662 260.168, 600.709 258.477 C 605.807 256.347, 604.407 254.552, 597.380 254.208 C 594.101 254.047, 591.099 254.234, 590.709 254.624 M 613.750 255.392 C 609.648 258.506, 612.618 259.991, 618.613 257.823 C 621.158 256.903, 622.197 256.919, 623.375 257.896 C 625.700 259.826, 624.212 261.873, 619.647 263.023 C 611.576 265.057, 610.848 265.633, 611.190 269.724 C 611.612 274.784, 615.191 276.896, 620.802 275.398 C 623.039 274.801, 625.678 274.707, 626.953 275.178 C 630.514 276.496, 631 275.405, 631 266.096 C 631 255.151, 630.074 253.985, 621.421 254.032 C 618.091 254.050, 614.734 254.645, 613.750 255.392 M 638.350 257 C 638.680 258.650, 639.802 261.912, 640.842 264.250 C 641.883 266.587, 643.025 269.725, 643.379 271.221 C 644.085 274.200, 647.034 276.308, 649.287 275.443 C 650.940 274.809, 651.948 272.952, 655.459 264.078 C 658.583 256.181, 658.688 254, 655.945 254 C 654.416 254, 653.268 255.407, 651.458 259.500 C 650.120 262.525, 648.565 265, 648.002 265 C 647.439 265, 645.764 262.525, 644.281 259.500 C 642.410 255.685, 640.996 254, 639.667 254 C 638.070 254, 637.850 254.501, 638.350 257 M 741.215 264.250 C 741.483 273.894, 741.628 274.518, 743.664 274.808 C 746.692 275.240, 747.307 272.528, 746.467 262.444 C 745.795 254.375, 745.656 254, 743.347 254 L 740.930 254 741.215 264.250 M 474.315 258.061 C 470.060 259.670, 468.840 266.693, 472.128 270.655 C 473.648 272.485, 478.504 272.353, 480.429 270.429 C 482.580 268.277, 482.470 261.714, 480.250 259.807 C 477.479 257.427, 476.642 257.181, 474.315 258.061 M 565.431 259.478 C 559.168 265.742, 566.241 275.152, 574.066 270.965 C 576.350 269.743, 576.857 260.956, 574.744 259.203 C 571.655 256.639, 568.167 256.742, 565.431 259.478 M 618.250 266.201 C 615.122 267.736, 615.351 270.799, 618.655 271.628 C 622.065 272.484, 624.500 270.928, 624.500 267.891 C 624.500 265.144, 621.859 264.430, 618.250 266.201 M 671.517 266.981 C 669.473 269.239, 670.821 272, 673.967 272 C 676.315 272, 679.378 268.428, 678.653 266.537 C 677.820 264.368, 673.647 264.627, 671.517 266.981 M 195.508 280.750 C 193.450 287.212, 190.924 294.525, 189.896 297 C 188.868 299.475, 187.170 304.650, 186.123 308.500 C 185.075 312.350, 183.269 317.879, 182.109 320.787 C 180.949 323.695, 179.998 327.070, 179.996 328.287 C 179.994 329.504, 178.623 334.100, 176.949 338.500 C 173.082 348.662, 165.386 372.410, 164.471 377 C 164.087 378.925, 162.953 382.326, 161.950 384.557 C 160.947 386.788, 159.583 390.838, 158.919 393.557 C 158.255 396.276, 157.370 398.950, 156.953 399.500 C 156.537 400.050, 155.683 402.525, 155.056 405 C 154.429 407.475, 153.526 410.400, 153.048 411.500 C 152.570 412.600, 150.966 417.550, 149.483 422.500 C 148 427.450, 146.484 431.725, 146.115 432 C 145.746 432.275, 144.905 435.150, 144.246 438.390 C 142.753 445.725, 140.804 448.766, 136.422 450.597 C 132.615 452.188, 132.259 453.117, 134.571 455.429 C 136.608 457.465, 143.386 457.471, 145.418 455.439 C 146.277 454.580, 147.695 451.317, 148.570 448.189 C 149.444 445.060, 154.135 430.125, 158.993 415 C 163.852 399.875, 170.823 378.050, 174.485 366.500 C 178.147 354.950, 181.744 343.700, 182.478 341.500 C 183.212 339.300, 184.729 334.575, 185.849 331 C 186.969 327.425, 189.442 320, 191.346 314.500 C 193.250 309, 196.019 300.450, 197.499 295.500 C 198.980 290.550, 200.781 284.700, 201.501 282.500 C 204.562 273.148, 204.426 269, 201.058 269 C 199.630 269, 198.466 271.466, 195.508 280.750 M 804.278 271.122 C 802.749 272.651, 803.807 275, 806.024 275 C 807.968 275, 808.990 273.275, 808.246 271.250 C 807.675 269.697, 805.765 269.635, 804.278 271.122 M 308.420 271.870 C 308.804 272.492, 308.617 273, 308.004 273 C 306.781 273, 303.114 280.931, 301.068 288 C 300.352 290.475, 298.936 294.750, 297.922 297.500 C 296.908 300.250, 294.880 306.775, 293.414 312 C 291.949 317.225, 290.206 322.625, 289.542 324 C 288.877 325.375, 287.754 329.200, 287.045 332.500 C 285.903 337.813, 283.909 344.427, 276.044 369 C 274.899 372.575, 272.341 380.900, 270.359 387.500 C 266.050 401.848, 265.580 402.829, 262.439 404.023 C 257.799 405.787, 260.115 412, 265.413 412 C 269.828 412, 270.470 411.050, 273.919 399.407 C 283.379 367.480, 290.220 345.103, 300.026 314 C 303.234 303.825, 306.829 292.257, 308.014 288.293 C 310.620 279.575, 311.112 271.925, 309.111 271.226 C 308.264 270.930, 307.994 271.181, 308.420 271.870 M 119.625 278.798 C 119.354 279.237, 119.545 280.249, 120.051 281.048 C 120.768 282.182, 120.973 282.007, 120.985 280.250 C 121 277.937, 120.492 277.394, 119.625 278.798 M 404.549 298.250 C 404.336 298.938, 403.883 301.975, 403.543 305 C 401.966 319.031, 400.501 320.092, 381.508 320.967 C 373.766 321.324, 366.857 321.971, 366.154 322.405 C 363.298 324.170, 363.021 327.871, 365.045 337.250 C 366.143 342.338, 367.496 349.650, 368.053 353.500 C 368.610 357.350, 369.458 361.400, 369.938 362.500 C 370.418 363.600, 371.342 368.550, 371.991 373.500 C 372.641 378.450, 373.633 384.300, 374.196 386.500 C 376.183 394.264, 380.108 415.574, 380.628 421.421 C 381.559 431.880, 377.693 435, 363.805 435 C 356.771 435, 355.892 435.202, 356.189 436.750 C 356.488 438.308, 358.156 438.530, 371.380 438.777 L 386.235 439.055 385.569 434.277 C 384.980 430.057, 382.798 419.677, 379.941 407.500 C 379.425 405.300, 378.538 399.547, 377.969 394.716 C 377.400 389.884, 376.451 383.584, 375.858 380.716 C 369.448 349.680, 365.837 327.763, 366.949 326.651 C 367.526 326.074, 375.839 325.547, 386.594 325.406 C 396.933 325.270, 405.670 324.730, 406.207 324.193 C 407.359 323.041, 409.477 300.687, 408.642 298.509 C 407.942 296.685, 405.091 296.505, 404.549 298.250 M 437.067 416.612 C 434.718 425.030, 426.596 432.452, 417.501 434.491 C 414.636 435.133, 414.589 435.226, 416.442 436.581 C 421.279 440.118, 431.337 437.054, 436.852 430.363 C 440.634 425.775, 442.225 416.796, 439.702 414.273 C 438.302 412.873, 438.047 413.099, 437.067 416.612"/>
  </g>
  <g id="red-layer" fill="#D4001A">
    <path d="M 295.500 182.767 C 287.961 183.269, 287.260 183.693, 285.619 188.749 C 284.099 193.431, 275.401 225.674, 268.017 254 C 263.877 269.883, 260.092 282.993, 259.240 284.401 C 258.940 284.897, 258.088 284.474, 257.347 283.460 C 256.114 281.774, 256 281.888, 256 284.809 C 256 286.764, 255.495 288, 254.698 288 C 253.409 288, 251.644 283.667, 248.588 273 C 247.721 269.975, 245.629 262.775, 243.939 257 C 242.249 251.225, 240.054 243.125, 239.061 239 C 235.525 224.303, 230.082 204.425, 228.305 199.716 C 226.827 195.799, 226.742 194.781, 227.835 194.104 C 228.842 193.480, 228.656 193.143, 227.071 192.729 C 225.892 192.421, 224.323 190.623, 223.488 188.626 C 221.090 182.886, 220.136 182.705, 194.810 183.185 C 176.662 183.530, 171.662 183.916, 170.540 185.059 C 169.307 186.317, 165.194 200.071, 156.393 232.363 C 155.065 237.238, 153.752 241.593, 153.475 242.041 C 153.198 242.488, 151.899 247.050, 150.587 252.177 C 149.275 257.305, 145.441 271.400, 142.067 283.500 C 138.694 295.600, 135.451 307.285, 134.862 309.467 C 133.859 313.176, 133.700 313.310, 132.395 311.525 C 131.097 309.750, 131 309.845, 131 312.882 C 131 315.453, 130.628 316.075, 129.250 315.810 C 127.414 315.456, 126.159 312.405, 122.953 300.500 C 121.916 296.650, 119.680 288.775, 117.984 283 C 113.502 267.735, 111.500 260.837, 107.972 248.500 C 106.243 242.450, 103.933 234.575, 102.841 231 C 101.749 227.425, 99.722 220.450, 98.338 215.500 C 96.953 210.550, 95.139 204.475, 94.307 202 C 93.475 199.525, 92.793 196.488, 92.791 195.250 C 92.790 194.012, 92.262 193, 91.618 193 C 90.975 193, 89.560 191.088, 88.474 188.750 L 86.500 184.500 64.220 184.231 C 40.309 183.942, 37.424 184.400, 38.514 188.311 C 40.652 195.987, 65.238 271.683, 81.449 320.500 C 87.659 339.200, 97.782 370.025, 103.946 389 C 124.289 451.632, 122.205 446.454, 127.450 447.405 C 129.038 447.693, 130.657 448.446, 131.048 449.078 C 131.438 449.709, 131.925 449.838, 132.129 449.363 C 132.333 448.888, 133.821 447.824, 135.435 446.998 C 138.350 445.506, 142.006 436.534, 147.456 417.500 C 148.243 414.750, 151.327 405.075, 154.309 396 C 157.290 386.925, 161.400 374.100, 163.442 367.500 C 165.484 360.900, 169.084 349.650, 171.441 342.500 C 173.799 335.350, 179.899 316.675, 184.997 301 C 199.788 255.518, 198.883 257.358, 203.484 263.390 C 205.462 265.984, 205.885 267.438, 205.433 270.101 C 204.925 273.094, 205.021 273.300, 206.234 271.824 C 208.211 269.419, 208.827 270.705, 214.462 289 C 217.087 297.525, 222.739 315.525, 227.022 329 C 231.304 342.475, 236.242 358.225, 237.995 364 C 248.882 399.858, 249.507 401.251, 255.250 402.459 C 256.928 402.813, 258.025 403.713, 258.063 404.769 C 258.107 405.969, 258.430 405.741, 259.113 404.028 C 259.656 402.669, 260.499 401.310, 260.987 401.008 C 262.353 400.164, 265.829 391.517, 267.977 383.619 C 271.599 370.301, 279.175 345.511, 280.590 342.349 C 281.365 340.616, 282 338.773, 282 338.253 C 282 337.294, 286.805 321.555, 298.107 285.500 C 303.868 267.121, 306.886 260, 308.916 260 C 310.769 260, 313.263 268.005, 312.705 272.163 C 312.348 274.826, 312.467 275.862, 313.027 274.956 C 314.566 272.466, 315.626 275.029, 317.804 286.500 C 318.953 292.550, 321.269 304.700, 322.951 313.500 C 324.633 322.300, 327.565 338.050, 329.465 348.500 C 331.366 358.950, 334.090 373.575, 335.520 381 C 336.949 388.425, 338.552 397.200, 339.083 400.500 C 343.107 425.522, 344.189 428.704, 349.123 430.033 C 351.654 430.715, 353.389 431.878, 353.889 433.229 L 354.675 435.353 355.235 433.211 C 355.741 431.275, 356.274 431.127, 360.801 431.663 C 368.461 432.570, 374.750 431.311, 376.591 428.501 C 378.251 425.967, 376.730 414.451, 370.448 382 C 369.117 375.125, 367.354 365.900, 366.530 361.500 C 365.706 357.100, 363.869 347.430, 362.449 340.011 C 359.753 325.925, 359.835 320.733, 362.777 319.430 C 363.725 319.010, 371.379 318.374, 379.787 318.018 C 398.613 317.219, 399.005 316.980, 399.735 305.846 C 400.066 300.785, 400.709 298.111, 401.799 297.250 C 403.243 296.110, 403.243 296, 401.798 296 C 400.043 296, 399 293.995, 399 290.618 C 399 286.328, 397.571 286, 378.871 286 C 364.461 286, 360.863 285.720, 359.646 284.503 C 358.822 283.679, 357.524 283.245, 356.761 283.538 C 353.394 284.830, 349.576 273.496, 345.967 251.500 C 345.516 248.750, 344.221 241.775, 343.090 236 C 338.822 214.213, 335.605 215.886, 382.695 215.394 C 403.488 215.177, 421.542 214.758, 422.816 214.464 C 425.798 213.775, 427.912 208.747, 428.681 200.518 C 429.159 195.397, 429.677 193.988, 431.386 193.160 C 433.498 192.137, 433.497 192.135, 431.250 192.068 C 429.301 192.009, 429 191.462, 429 187.975 C 429 184.574, 428.602 183.799, 426.432 182.974 C 424.200 182.126, 307.886 181.941, 295.500 182.767 M 405.634 388.031 C 390.670 392.513, 385.190 412.114, 395.904 422.834 C 402.432 429.365, 410 435.190, 410 433.683 C 410 432.794, 411.489 432.017, 413.949 431.624 C 425.232 429.820, 432.574 422.006, 434.501 409.750 C 434.825 407.688, 435.611 406, 436.247 406 C 436.883 406, 435.996 404.538, 434.276 402.750 C 432.556 400.962, 429.527 397.631, 427.545 395.346 C 421.513 388.393, 413.431 385.695, 405.634 388.031"/>
  </g>
</svg>