<svg xmlns="http://www.w3.org/2000/svg" viewBox="0 0 418 287" fill="none">
  <!-- Monogramma VMF. — Vetreria Monferrina -->
  <g id="shadow" fill="#333333">
    <path d="M 405.664 21.706 C 404.288 22.061, 403.979 22.781, 404.431 24.580 C 405.171 27.528, 401.525 41.904, 399.531 43.898 C 397.111 46.317, 388.986 46.851, 353.405 46.927 C 311.747 47.016, 313.664 46.189, 317.930 62.239 C 318.992 66.232, 320.137 71.975, 320.475 75 C 320.813 78.025, 321.712 83.200, 322.474 86.500 C 323.236 89.800, 324.390 95.200, 325.038 98.500 C 326.570 106.289, 326.925 107.408, 327.639 106.694 C 328.267 106.066, 325.772 91.355, 323.412 81.765 C 322.635 78.611, 322 74.722, 322 73.122 C 322 71.523, 321.297 66.814, 320.437 62.658 C 317.807 49.940, 313.953 51.003, 362.785 50.985 C 385.728 50.976, 404.993 50.639, 405.596 50.235 C 406.987 49.302, 407.531 46.998, 409.495 33.727 C 411.401 20.843, 411.219 20.272, 405.664 21.706 M 201 24.310 C 201 25.122, 201.708 26.058, 202.573 26.390 C 203.669 26.810, 204.048 26.489, 203.823 25.329 C 203.412 23.213, 201 22.341, 201 24.310 M 73.100 42.191 C 73.155 42.911, 73.560 44.625, 74 46 C 74.765 48.387, 74.805 48.356, 74.900 45.309 C 74.955 43.554, 74.550 41.840, 74 41.500 C 73.450 41.160, 73.045 41.471, 73.100 42.191 M 167.508 108.750 C 165.450 115.213, 162.924 122.525, 161.896 125 C 160.868 127.475, 159.170 132.650, 158.123 136.500 C 157.075 140.350, 155.269 145.879, 154.109 148.787 C 152.949 151.695, 151.998 155.070, 151.996 156.287 C 151.994 157.504, 150.623 162.100, 148.949 166.500 C 145.082 176.662, 137.386 200.410, 136.471 205 C 136.087 206.925, 134.953 210.326, 133.950 212.557 C 132.947 214.788, 131.583 218.838, 130.919 221.557 C 130.255 224.276, 129.370 226.950, 128.953 227.500 C 128.537 228.050, 127.683 230.525, 127.056 233 C 126.429 235.475, 125.526 238.400, 125.048 239.500 C 124.570 240.600, 122.966 245.550, 121.483 250.500 C 120 255.450, 118.484 259.725, 118.115 260 C 117.746 260.275, 116.905 263.150, 116.246 266.390 C 114.753 273.725, 112.804 276.766, 108.422 278.597 C 102.922 280.895, 105.215 285, 112 285 C 116.911 285, 118.589 283.275, 120.570 276.189 C 121.444 273.060, 126.135 258.125, 130.993 243 C 135.852 227.875, 142.823 206.050, 146.485 194.500 C 150.147 182.950, 153.744 171.700, 154.478 169.500 C 155.212 167.300, 156.729 162.575, 157.849 159 C 158.969 155.425, 161.442 148, 163.346 142.500 C 165.250 137, 168.019 128.450, 169.499 123.500 C 170.980 118.550, 172.781 112.700, 173.501 110.500 C 176.562 101.148, 176.426 97, 173.058 97 C 171.630 97, 170.466 99.466, 167.508 108.750 M 280.420 99.870 C 280.804 100.492, 280.617 101, 280.004 101 C 278.781 101, 275.114 108.931, 273.068 116 C 272.352 118.475, 270.936 122.750, 269.922 125.500 C 268.908 128.250, 266.880 134.775, 265.414 140 C 263.949 145.225, 262.206 150.625, 261.542 152 C 260.877 153.375, 259.754 157.200, 259.045 160.500 C 257.903 165.813, 255.909 172.427, 248.044 197 C 246.899 200.575, 244.341 208.900, 242.359 215.500 C 238.050 229.848, 237.580 230.829, 234.439 232.023 C 229.799 233.787, 232.115 240, 237.413 240 C 241.828 240, 242.470 239.050, 245.919 227.407 C 255.379 195.480, 262.220 173.103, 272.026 142 C 275.234 131.825, 278.829 120.257, 280.014 116.293 C 282.620 107.575, 283.112 99.925, 281.111 99.226 C 280.264 98.930, 279.994 99.181, 280.420 99.870 M 376.549 126.250 C 376.336 126.938, 375.883 129.975, 375.543 133 C 373.966 147.031, 372.501 148.092, 353.508 148.967 C 345.766 149.324, 338.857 149.971, 338.154 150.405 C 335.298 152.170, 335.021 155.871, 337.045 165.250 C 338.143 170.338, 339.496 177.650, 340.053 181.500 C 340.610 185.350, 341.458 189.400, 341.938 190.500 C 342.418 191.600, 343.342 196.550, 343.991 201.500 C 344.641 206.450, 345.633 212.300, 346.196 214.500 C 348.183 222.264, 352.108 243.574, 352.628 249.421 C 353.559 259.880, 349.693 263, 335.805 263 C 328.771 263, 327.892 263.202, 328.189 264.750 C 328.488 266.308, 330.156 266.530, 343.380 266.777 L 358.235 267.055 357.569 262.277 C 356.980 258.057, 354.798 247.677, 351.941 235.500 C 351.425 233.300, 350.538 227.547, 349.969 222.716 C 349.400 217.884, 348.451 211.584, 347.858 208.716 C 341.448 177.680, 337.837 155.763, 338.949 154.651 C 339.526 154.074, 347.839 153.547, 358.594 153.406 C 368.933 153.270, 377.670 152.730, 378.207 152.193 C 379.359 151.041, 381.477 128.687, 380.642 126.509 C 379.942 124.685, 377.091 124.505, 376.549 126.250 M 409.067 244.612 C 406.718 253.030, 398.596 260.452, 389.501 262.491 C 386.636 263.133, 386.589 263.226, 388.442 264.581 C 393.279 268.118, 403.337 265.054, 408.852 258.363 C 412.634 253.775, 414.225 244.796, 411.702 242.273 C 410.302 240.873, 410.047 241.099, 409.067 244.612"/>
  </g>
  <g id="vmf" fill="#D4001A">
    <path d="M 267.500 10.767 C 259.961 11.269, 259.260 11.693, 257.619 16.749 C 256.099 21.431, 247.401 53.674, 240.017 82 C 235.877 97.883, 232.092 110.993, 231.240 112.401 C 230.940 112.897, 230.088 112.474, 229.347 111.460 C 228.114 109.774, 228 109.888, 228 112.809 C 228 114.764, 227.495 116, 226.698 116 C 225.409 116, 223.644 111.667, 220.588 101 C 219.721 97.975, 217.629 90.775, 215.939 85 C 214.249 79.225, 212.054 71.125, 211.061 67 C 207.525 52.303, 202.082 32.425, 200.305 27.716 C 198.827 23.799, 198.742 22.781, 199.835 22.104 C 200.842 21.480, 200.656 21.143, 199.071 20.729 C 197.892 20.421, 196.323 18.623, 195.488 16.626 C 193.090 10.886, 192.136 10.705, 166.810 11.185 C 148.662 11.530, 143.662 11.916, 142.540 13.059 C 141.307 14.317, 137.194 28.071, 128.393 60.363 C 127.065 65.238, 125.752 69.593, 125.475 70.041 C 125.198 70.488, 123.899 75.050, 122.587 80.177 C 121.275 85.305, 117.441 99.400, 114.067 111.500 C 110.694 123.600, 107.451 135.285, 106.862 137.467 C 105.859 141.176, 105.700 141.310, 104.395 139.525 C 103.097 137.750, 103 137.845, 103 140.882 C 103 143.453, 102.628 144.075, 101.250 143.810 C 99.414 143.456, 98.159 140.405, 94.953 128.500 C 93.916 124.650, 91.680 116.775, 89.984 111 C 85.502 95.735, 83.500 88.837, 79.972 76.500 C 78.243 70.450, 75.933 62.575, 74.841 59 C 73.749 55.425, 71.722 48.450, 70.338 43.500 C 68.953 38.550, 67.139 32.475, 66.307 30 C 65.475 27.525, 64.793 24.488, 64.791 23.250 C 64.790 22.012, 64.262 21, 63.618 21 C 62.975 21, 61.560 19.087, 60.474 16.750 L 58.500 12.500 36.220 12.231 C 12.309 11.942, 9.424 12.400, 10.514 16.311 C 12.652 23.987, 37.238 99.683, 53.449 148.500 C 59.659 167.200, 69.782 198.025, 75.946 217 C 96.289 279.632, 94.205 274.454, 99.450 275.405 C 101.038 275.693, 102.657 276.446, 103.048 277.078 C 103.438 277.709, 103.925 277.838, 104.129 277.363 C 104.333 276.888, 105.821 275.824, 107.435 274.998 C 110.350 273.506, 114.006 264.534, 119.456 245.500 C 120.243 242.750, 123.327 233.075, 126.309 224 C 129.290 214.925, 133.400 202.100, 135.442 195.500 C 137.484 188.900, 141.084 177.650, 143.441 170.500 C 145.799 163.350, 151.899 144.675, 156.997 129 C 171.788 83.518, 170.883 85.358, 175.484 91.390 C 177.462 93.984, 177.885 95.438, 177.433 98.101 C 176.925 101.094, 177.021 101.300, 178.234 99.824 C 180.211 97.419, 180.827 98.705, 186.462 117 C 189.087 125.525, 194.739 143.525, 199.022 157 C 203.304 170.475, 208.242 186.225, 209.995 192 C 220.882 227.858, 221.507 229.251, 227.250 230.459 C 228.928 230.813, 230.025 231.713, 230.063 232.769 C 230.107 233.969, 230.430 233.741, 231.113 232.028 C 231.656 230.669, 232.499 229.310, 232.987 229.008 C 234.353 228.164, 237.829 219.517, 239.977 211.619 C 243.599 198.301, 251.175 173.511, 252.590 170.349 C 253.365 168.616, 254 166.773, 254 166.253 C 254 165.294, 258.805 149.555, 270.107 113.500 C 275.868 95.121, 278.886 88, 280.916 88 C 282.769 88, 285.263 96.005, 284.705 100.163 C 284.348 102.826, 284.467 103.862, 285.027 102.956 C 286.566 100.466, 287.626 103.029, 289.804 114.500 C 290.953 120.550, 293.269 132.700, 294.951 141.500 C 296.633 150.300, 299.565 166.050, 301.465 176.500 C 303.366 186.950, 306.090 201.575, 307.520 209 C 308.949 216.425, 310.552 225.200, 311.083 228.500 C 315.107 253.522, 316.189 256.704, 321.123 258.033 C 323.654 258.715, 325.389 259.878, 325.889 261.229 L 326.675 263.353 327.235 261.211 C 327.741 259.275, 328.274 259.127, 332.801 259.663 C 340.461 260.570, 346.750 259.311, 348.591 256.501 C 350.251 253.967, 348.730 242.451, 342.448 210 C 341.117 203.125, 339.354 193.900, 338.530 189.500 C 337.706 185.100, 335.869 175.430, 334.449 168.011 C 331.753 153.925, 331.835 148.733, 334.777 147.430 C 335.725 147.010, 343.379 146.374, 351.787 146.018 C 370.613 145.219, 371.005 144.980, 371.735 133.846 C 372.066 128.785, 372.709 126.111, 373.799 125.250 C 375.243 124.110, 375.243 124, 373.798 124 C 372.043 124, 371 121.995, 371 118.618 C 371 114.328, 369.571 114, 350.871 114 C 336.461 114, 332.863 113.720, 331.646 112.503 C 330.822 111.679, 329.524 111.245, 328.761 111.538 C 325.394 112.830, 321.576 101.496, 317.967 79.500 C 317.516 76.750, 316.221 69.775, 315.090 64 C 310.822 42.213, 307.605 43.886, 354.695 43.394 C 375.488 43.177, 393.542 42.758, 394.816 42.464 C 397.798 41.775, 399.912 36.747, 400.681 28.518 C 401.159 23.397, 401.677 21.988, 403.386 21.160 C 405.498 20.137, 405.497 20.135, 403.250 20.068 C 401.301 20.009, 401 19.462, 401 15.975 C 401 12.574, 400.602 11.799, 398.432 10.974 C 396.200 10.126, 279.886 9.941, 267.500 10.767 M 377.634 216.031 C 362.670 220.513, 357.190 240.114, 367.904 250.834 C 374.432 257.365, 382 263.190, 382 261.683 C 382 260.794, 383.489 260.017, 385.949 259.624 C 397.232 257.820, 404.574 250.006, 406.501 237.750 C 406.825 235.688, 407.611 234, 408.247 234 C 408.883 234, 407.996 232.537, 406.276 230.750 C 404.556 228.963, 401.527 225.631, 399.545 223.346 C 393.513 216.393, 385.431 213.695, 377.634 216.031"/>
  </g>
</svg>